<?xml version="1.0" standalone="no"?>
<!DOCTYPE svg PUBLIC "-//W3C//DTD SVG 20010904//EN"
 "http://www.w3.org/TR/2001/REC-SVG-20010904/DTD/svg10.dtd">
<svg version="1.0" xmlns="http://www.w3.org/2000/svg"
 width="265.000000pt" height="265.000000pt" viewBox="0 0 265.000000 265.000000"
 preserveAspectRatio="xMidYMid meet">
<metadata>
Created by potrace 1.14, written by Peter Selinger 2001-2017
</metadata>
<g transform="translate(0.000000,265.000000) scale(0.100000,-0.100000)"
fill="#000000" stroke="none">
<path d="M479 2633 c-27 -7 -64 -20 -81 -29 -51 -27 -133 -115 -152 -165 -14
-36 -25 -49 -56 -63 -60 -26 -126 -91 -157 -154 l-28 -57 0 -960 0 -960 23
-46 c47 -91 131 -160 219 -180 51 -11 943 -15 1062 -4 155 14 290 54 433 126
118 61 210 129 306 225 40 41 89 86 110 101 40 30 171 158 212 208 106 127
207 345 239 515 21 109 23 127 23 235 0 138 -15 243 -53 368 -136 447 -535
783 -999 843 -103 13 -1047 11 -1101 -3z m1126 -66 c17 -3 30 -6 30 -7 0 -1
13 -4 28 -6 59 -10 194 -58 268 -94 574 -289 800 -980 507 -1553 -109 -212
-278 -383 -488 -490 -77 -40 -185 -81 -236 -91 -10 -2 -37 -9 -59 -14 -76 -20
-179 -24 -643 -25 -332 0 -482 3 -518 12 -68 16 -140 73 -178 141 l-31 55 -3
922 c-2 904 -2 922 18 975 22 57 56 100 108 137 72 50 79 51 642 46 289 -2
539 -6 555 -8z"/>
<path d="M1199 2493 c-1 -26 -6 -52 -15 -71 -13 -30 -12 -42 2 -42 8 0 14 5
14 10 0 6 11 10 25 10 16 0 25 -6 25 -16 0 -8 5 -12 11 -8 7 4 8 20 3 43 -4
20 -6 48 -5 64 1 24 -2 27 -29 27 -22 0 -30 -5 -31 -17z m37 -41 c2 -22 -2
-32 -12 -32 -10 0 -13 10 -11 35 3 43 20 41 23 -3z"/>
<path d="M1282 2463 c0 -59 9 -71 48 -65 39 6 39 22 0 22 -22 0 -28 4 -24 15
4 9 13 14 22 13 8 -2 17 3 20 11 3 9 -1 11 -16 7 -13 -4 -22 -1 -26 9 -4 11 2
15 25 15 18 0 28 4 24 10 -3 6 -22 10 -40 10 l-34 0 1 -47z"/>
<path d="M1376 2473 c3 -68 4 -73 14 -73 6 0 10 20 10 45 0 36 3 45 18 45 14
0 17 -7 14 -45 -3 -34 -1 -45 10 -45 11 0 14 14 14 55 l-1 55 -40 0 c-40 0
-40 0 -39 -37z"/>
<path d="M1490 2464 c-23 -52 -24 -64 -10 -64 6 0 10 5 10 10 0 6 9 10 20 10
11 0 20 -7 20 -15 0 -8 5 -15 10 -15 6 0 10 7 10 16 0 28 -22 104 -31 104 -4
0 -17 -21 -29 -46z m30 -9 c0 -8 -4 -15 -10 -15 -5 0 -7 7 -4 15 4 8 8 15 10
15 2 0 4 -7 4 -15z"/>
<path d="M1592 2487 c-16 -19 -25 -94 -13 -102 7 -3 11 3 11 15 0 15 5 20 15
17 7 -3 24 2 37 13 18 15 21 22 13 36 -15 24 -51 36 -63 21z m43 -38 c-11 -17
-34 -10 -32 10 1 16 5 18 19 10 10 -6 16 -14 13 -20z"/>
<path d="M1677 2459 c-4 -16 -1 -19 13 -14 17 5 18 3 10 -26 -5 -18 -15 -36
-22 -40 -15 -9 -11 -14 18 -23 17 -5 20 -2 21 30 1 33 23 77 23 46 0 -17 17
-15 23 2 4 10 -7 19 -38 29 -41 14 -43 14 -48 -4z"/>
<path d="M1777 2390 c-41 -44 -44 -50 -22 -50 8 0 15 5 15 10 0 7 7 7 20 0 11
-6 18 -15 15 -20 -3 -5 4 -14 17 -21 18 -10 24 -9 33 5 5 10 16 25 23 34 10
14 12 14 10 2 -2 -8 3 -14 11 -12 9 2 11 -3 6 -15 -27 -67 -9 -73 23 -7 23 47
21 74 -4 53 -11 -9 -16 -6 -24 16 -12 32 -10 34 -44 -30 l-26 -50 0 63 c0 34
-4 62 -8 62 -5 0 -25 -18 -45 -40z m33 -11 c0 -11 -4 -18 -10 -14 -5 3 -7 12
-3 20 7 21 13 19 13 -6z"/>
<path d="M1946 2308 c-14 -22 -26 -43 -26 -46 1 -16 52 -44 62 -34 7 7 3 12
-11 17 -12 3 -21 13 -21 21 0 16 9 18 30 5 23 -15 33 0 11 16 -29 20 -16 38
14 19 19 -12 24 -13 28 -2 3 8 -8 19 -28 29 l-32 15 -27 -40z"/>
<path d="M2033 2260 c-13 -15 -26 -35 -29 -44 -8 -20 12 -21 23 -1 6 10 13 11
23 5 13 -8 13 -13 2 -31 -24 -38 -1 -34 33 6 19 22 34 43 35 48 0 12 -28 8
-32 -5 -3 -7 -12 -9 -23 -4 -14 5 -16 9 -7 18 13 13 16 38 5 37 -5 0 -18 -13
-30 -29z"/>
<path d="M2117 2214 c-11 -12 3 -23 21 -17 11 4 7 -5 -12 -25 -16 -17 -33 -29
-37 -26 -18 11 -16 -14 2 -29 23 -21 33 -22 26 -3 -3 7 8 27 25 42 20 19 29
23 25 12 -8 -22 7 -32 22 -14 20 24 -49 82 -72 60z"/>
<path d="M2232 2038 c-49 -34 -47 -50 6 -43 l37 4 -28 -20 c-45 -34 -19 -42
29 -9 56 39 57 53 3 47 l-41 -5 27 23 c43 33 16 36 -33 3z"/>
<path d="M2310 1964 c0 -8 5 -12 10 -9 6 3 10 3 10 -2 0 -4 -13 -15 -29 -24
-21 -12 -32 -14 -40 -6 -15 15 -15 -7 -1 -34 12 -21 32 -27 24 -6 -3 8 10 20
31 30 36 17 36 17 30 -3 -5 -15 -3 -18 9 -14 20 8 20 17 1 54 -16 32 -45 41
-45 14z"/>
<path d="M1211 1826 c-7 -8 -11 -32 -9 -53 3 -35 5 -38 37 -41 41 -4 53 11 46
58 -8 48 -48 68 -74 36z"/>
<path d="M1352 1831 c-8 -5 -14 -21 -14 -37 -2 -62 0 -64 42 -64 l40 0 0 43
c0 59 -29 83 -68 58z"/>
<path d="M1482 1828 c-7 -7 -12 -32 -12 -56 l0 -43 43 3 42 3 -2 44 c-1 25 -8
48 -15 53 -19 11 -42 10 -56 -4z"/>
<path d="M2353 1768 c-38 -18 -25 -96 13 -81 8 3 11 9 8 14 -3 5 -10 7 -15 4
-5 -4 -9 3 -9 14 0 23 34 45 56 37 10 -4 13 -13 9 -26 -4 -14 -2 -20 8 -20 22
0 27 11 15 34 -20 37 -43 44 -85 24z"/>
<path d="M1139 1688 c-17 -7 -19 -17 -19 -92 0 -87 5 -98 43 -88 17 4 20 15
18 62 -2 41 13 53 63 53 26 0 50 5 54 11 8 13 10 56 2 57 -30 5 -146 2 -161
-3z"/>
<path d="M1334 1691 c-2 -2 -4 -22 -4 -43 0 -43 -5 -47 -70 -51 l-45 -2 -3
-45 c-4 -57 -16 -70 -61 -70 l-36 0 3 -49 4 -49 113 2 c106 1 115 3 134 25 12
13 21 34 21 46 0 12 15 38 33 59 27 32 39 38 77 39 l45 3 3 67 c2 49 0 67 -10
68 -7 0 -26 2 -41 3 -33 2 -42 -8 -46 -49 -2 -20 -19 -47 -52 -80 -32 -34 -49
-59 -49 -76 0 -66 -76 -87 -101 -28 -12 30 -11 33 14 55 16 13 34 21 43 17 25
-9 121 91 122 128 0 16 -5 29 -11 30 -55 3 -79 3 -83 0z"/>
<path d="M1579 1697 c-1 -1 -2 -37 -3 -79 -1 -42 -4 -80 -8 -83 -3 -3 -25 -6
-49 -7 -53 0 -99 -37 -99 -78 0 -16 -12 -39 -31 -58 l-31 -32 -118 0 c-64 0
-119 -2 -121 -4 -2 -3 -3 -25 -1 -50 l4 -46 55 0 c39 0 62 6 79 19 15 11 36
18 56 16 22 -2 41 4 60 20 33 27 70 23 88 -10 29 -54 -48 -101 -87 -55 -22 25
-79 27 -105 3 -12 -10 -39 -17 -76 -19 -31 -1 -60 -2 -64 -3 -13 -2 -9 -38 5
-49 7 -6 92 -9 212 -8 l200 1 3 43 c2 30 -3 50 -17 71 -12 16 -21 42 -21 58 0
16 -9 36 -20 46 -49 42 9 122 61 83 29 -21 31 -50 4 -86 -27 -36 -26 -60 3
-93 13 -15 18 -41 21 -114 1 -16 33 -17 49 -1 13 13 18 474 4 494 -6 9 -49 26
-53 21z"/>
<path d="M2370 1671 c-19 -6 -24 -13 -22 -32 2 -13 10 -31 18 -39 13 -13 14
-11 8 18 -7 36 14 47 23 12 7 -27 25 -26 21 2 -4 31 18 34 26 3 9 -35 24 -23
18 15 -4 26 -8 30 -36 29 -17 -1 -42 -4 -56 -8z"/>
<path d="M982 1598 c-17 -17 -15 -43 6 -60 14 -12 43 -15 85 -9 4 1 7 19 7 41
l0 40 -43 0 c-24 0 -48 -5 -55 -12z"/>
<path d="M1679 1600 c-3 -34 -2 -57 3 -66 10 -16 81 -7 95 13 17 22 16 28 -3
47 -17 18 -93 22 -95 6z"/>
<path d="M2460 1587 c-3 -3 -24 -7 -48 -10 -50 -5 -65 -15 -34 -23 12 -4 24
-14 27 -24 11 -35 59 -35 70 -1 6 18 -7 65 -15 58z m0 -43 c0 -9 -7 -14 -17
-12 -25 5 -28 28 -4 28 12 0 21 -6 21 -16z"/>
<path d="M1283 1503 c-19 -7 -16 -40 4 -47 23 -9 47 22 32 41 -12 14 -16 15
-36 6z"/>
<path d="M990 1463 c-45 -31 -14 -73 54 -73 36 0 36 0 36 43 0 41 -1 42 -35
43 -19 1 -43 -5 -55 -13z"/>
<path d="M1682 1466 c-4 -6 -7 -18 -6 -26 1 -8 2 -23 3 -32 1 -14 10 -18 39
-18 50 0 79 28 62 59 -12 23 -11 23 -58 25 -18 1 -36 -2 -40 -8z"/>
<path d="M2368 1475 c-2 -3 -3 -18 0 -34 4 -32 27 -47 46 -32 7 6 17 6 26 1
21 -13 40 7 40 41 0 28 -1 29 -53 29 -30 0 -56 -2 -59 -5z m50 -27 c-3 -7 -11
-13 -18 -13 -7 0 -15 6 -17 13 -3 7 4 12 17 12 13 0 20 -5 18 -12z m42 -4 c0
-9 -5 -14 -12 -12 -18 6 -21 28 -4 28 9 0 16 -7 16 -16z"/>
<path d="M1501 1446 c-9 -11 -8 -18 5 -31 15 -15 19 -15 32 -1 17 17 10 46
-11 46 -8 0 -20 -6 -26 -14z"/>
<path d="M2370 1378 c0 -8 12 -21 28 -30 l27 -17 -32 -1 c-40 0 -44 -20 -5
-21 15 -1 39 -3 55 -5 16 -2 27 2 27 9 0 7 -12 20 -27 29 l-28 17 33 1 c33 0
46 19 15 21 -10 0 -35 2 -55 5 -27 3 -38 1 -38 -8z"/>
<path d="M982 1328 c-29 -29 -4 -69 45 -70 51 -1 53 1 53 42 l0 40 -43 0 c-24
0 -48 -5 -55 -12z"/>
<path d="M1679 1330 c-1 -5 -1 -21 -1 -35 0 -14 0 -29 1 -33 2 -15 85 -3 98
14 12 17 7 44 -11 56 -16 11 -86 9 -87 -2z"/>
<path d="M1397 1303 c-12 -12 -7 -41 7 -46 19 -7 40 18 32 38 -6 15 -28 20
-39 8z"/>
<path d="M2366 1277 c-11 -8 -18 -26 -18 -43 0 -16 -5 -35 -10 -41 -6 -7 -8
-22 -5 -32 3 -11 0 -22 -7 -24 -17 -7 -3 -16 47 -31 27 -8 49 -10 53 -5 3 5
-3 12 -13 15 -46 15 -49 17 -30 21 9 3 17 10 17 18 0 8 7 11 19 8 10 -3 21 0
25 5 3 5 -15 15 -40 22 -31 9 -41 16 -32 21 11 8 11 10 0 18 -11 6 -10 11 3
25 19 19 21 19 46 6 21 -12 25 -36 7 -43 -7 -2 -10 -8 -6 -12 13 -14 38 4 38
29 0 26 -32 56 -60 56 -9 0 -24 -6 -34 -13z m14 -107 c0 -5 -7 -10 -15 -10 -8
0 -15 5 -15 10 0 6 7 10 15 10 8 0 15 -4 15 -10z"/>
<path d="M1205 1132 c-8 -8 -6 -75 3 -88 12 -18 39 -23 57 -10 12 8 18 27 19
56 1 43 1 44 -36 45 -21 2 -40 0 -43 -3z"/>
<path d="M1341 1126 c-14 -16 -3 -79 16 -93 11 -9 21 -9 39 -1 22 10 25 17 22
57 -3 44 -4 46 -35 47 -18 1 -37 -4 -42 -10z"/>
<path d="M1475 1132 c-13 -13 -4 -80 13 -94 19 -18 61 -8 63 14 7 81 6 82 -34
83 -20 1 -39 -1 -42 -3z"/>
<path d="M2270 1017 c0 -7 7 -22 15 -33 22 -29 18 -38 -9 -20 -17 10 -27 12
-31 5 -8 -13 -10 -12 43 -38 56 -29 69 -19 35 27 l-28 37 27 -18 c31 -19 48
-22 48 -7 0 5 -22 21 -50 35 -35 18 -50 21 -50 12z"/>
<path d="M2152 840 c-28 -45 5 -83 47 -54 24 18 42 11 23 -8 -7 -7 -12 -19
-12 -27 0 -11 8 -7 26 13 l27 28 -39 34 c-45 39 -55 41 -72 14z m38 -26 c0 -8
-7 -14 -15 -14 -15 0 -21 21 -9 33 10 9 24 -2 24 -19z"/>
<path d="M2086 767 c-14 -13 -23 -27 -19 -31 3 -3 14 1 24 10 24 22 46 8 24
-16 -9 -10 -12 -21 -7 -24 5 -3 15 1 22 9 20 24 33 6 15 -21 -20 -31 0 -33 26
-2 21 23 18 30 -29 76 -28 27 -25 27 -56 -1z"/>
<path d="M2028 716 c-25 -18 -28 -66 -4 -66 7 0 16 -9 19 -20 6 -24 39 -27 57
-5 7 8 9 23 5 32 -6 16 -8 15 -16 -5 -5 -13 -13 -21 -18 -17 -6 3 -7 13 -4 21
4 11 0 15 -13 12 -11 -2 -20 4 -22 15 -3 13 1 17 14 15 20 -4 31 17 12 25 -8
2 -21 -1 -30 -7z"/>
<path d="M1936 645 c-16 -16 -9 -53 16 -82 15 -19 56 -16 66 5 11 21 6 40 -21
70 -24 26 -40 28 -61 7z m46 -22 c20 -18 24 -53 7 -53 -16 0 -38 31 -39 53 0
21 8 22 32 0z"/>
<path d="M1887 614 c-3 -4 3 -24 13 -45 24 -47 24 -49 2 -49 -11 0 -24 13 -33
32 -21 48 -43 49 -23 1 25 -60 36 -68 73 -49 l31 17 -25 49 c-27 52 -28 54
-38 44z"/>
<path d="M1803 562 c-5 -21 -33 -39 -33 -22 0 6 -7 10 -15 10 -21 0 -19 -6 18
-50 46 -56 59 -52 55 16 -3 58 -15 81 -25 46z m3 -59 c-10 -10 -19 5 -10 18 6
11 8 11 12 0 2 -7 1 -15 -2 -18z"/>
<path d="M1672 527 c-24 -11 -25 -28 -2 -35 7 -3 10 0 6 7 -5 7 1 11 13 11 24
0 44 -31 35 -55 -5 -11 -14 -15 -30 -11 -18 5 -22 3 -18 -8 3 -8 11 -17 19
-19 15 -6 55 28 55 46 -1 52 -37 82 -78 64z"/>
<path d="M1624 507 c-3 -9 -3 -20 0 -25 3 -6 -1 -13 -10 -16 -23 -9 -24 -8
-24 14 0 11 -6 20 -14 20 -11 0 -12 -8 -5 -37 4 -21 8 -39 9 -40 0 -2 0 -10 0
-18 0 -8 5 -15 10 -15 6 0 10 11 10 24 0 36 17 41 33 10 19 -37 27 -18 16 40
-10 56 -16 66 -25 43z"/>
<path d="M1197 488 c-9 -5 -17 -20 -17 -34 0 -19 6 -26 30 -31 20 -3 29 -11
28 -21 -2 -8 2 -17 9 -19 16 -6 15 94 0 104 -18 11 -32 12 -50 1z m36 -23 c7
-16 -8 -29 -23 -20 -10 6 -2 35 10 35 4 0 10 -7 13 -15z"/>
<path d="M1302 493 c-6 -3 -9 -10 -6 -15 10 -16 12 -78 2 -78 -4 0 -8 5 -8 10
0 19 -16 10 -17 -10 -2 -17 4 -20 43 -20 37 0 44 3 44 20 0 22 -15 27 -24 8
-3 -7 -4 8 -2 34 3 46 -5 60 -32 51z"/>
<path d="M1388 493 c-19 -5 -24 -28 -8 -38 6 -3 10 1 10 10 0 13 4 14 20 5 24
-13 27 -58 4 -67 -9 -3 -20 0 -24 7 -6 9 -9 9 -15 0 -10 -17 9 -32 36 -28 28
4 50 43 40 71 -10 26 -41 45 -63 40z"/>
<path d="M1482 488 c-29 -29 -5 -108 32 -108 35 0 52 74 25 106 -14 17 -41 18
-57 2z m48 -48 c0 -33 -18 -49 -31 -29 -13 21 -11 57 4 62 19 7 27 -2 27 -33z"/>
</g>
</svg>
