<svg width="22" height="17" viewBox="0 0 22 17" fill="none" xmlns="http://www.w3.org/2000/svg">
<path d="M18.952 1.80267C17.048 0.271672 14.036 0.0126716 13.908 0.00167163C13.707 -0.0153284 13.516 0.0986715 13.434 0.282672C13.428 0.294672 13.362 0.445672 13.289 0.680672C14.548 0.892672 16.095 1.32067 17.495 2.18967C17.719 2.32867 17.788 2.62367 17.649 2.84867C17.559 2.99467 17.402 3.07467 17.242 3.07467C17.156 3.07467 17.069 3.05167 16.99 3.00267C14.584 1.51067 11.578 1.43567 11 1.43567C10.422 1.43567 7.415 1.51067 5.011 3.00267C4.786 3.14267 4.492 3.07267 4.352 2.84867C4.212 2.62367 4.282 2.32967 4.506 2.18967C5.906 1.32167 7.452 0.892672 8.712 0.680672C8.638 0.444672 8.572 0.294672 8.567 0.282672C8.484 0.0986715 8.294 -0.0173284 8.092 0.00267156C7.965 0.0126716 4.953 0.271671 3.023 1.82467C2.015 2.75567 0 8.20367 0 12.9137C0 12.9967 0.022 13.0787 0.063 13.1507C1.454 15.5937 5.248 16.2337 6.113 16.2617C6.118 16.2617 6.123 16.2617 6.128 16.2617C6.281 16.2617 6.425 16.1887 6.515 16.0647L7.39 14.8627C5.031 14.2527 3.826 13.2177 3.756 13.1567C3.558 12.9817 3.539 12.6797 3.714 12.4817C3.889 12.2837 4.19 12.2647 4.388 12.4387C4.417 12.4647 6.636 14.3477 11 14.3477C15.372 14.3477 17.591 12.4567 17.613 12.4377C17.811 12.2657 18.113 12.2837 18.287 12.4827C18.461 12.6807 18.442 12.9817 18.245 13.1557C18.175 13.2177 16.97 14.2517 14.611 14.8617L15.486 16.0637C15.576 16.1877 15.72 16.2607 15.873 16.2607C15.878 16.2607 15.883 16.2607 15.888 16.2607C16.753 16.2337 20.547 15.5937 21.938 13.1497C21.978 13.0777 22 12.9967 22 12.9137C22 8.20367 19.985 2.75567 18.952 1.80267ZM7.891 11.0007C6.967 11.0007 6.217 10.1437 6.217 9.08767C6.217 8.03167 6.966 7.17467 7.891 7.17467C8.816 7.17467 9.565 8.03167 9.565 9.08767C9.565 10.1437 8.816 11.0007 7.891 11.0007ZM14.109 11.0007C13.185 11.0007 12.435 10.1437 12.435 9.08767C12.435 8.03167 13.184 7.17467 14.109 7.17467C15.033 7.17467 15.783 8.03167 15.783 9.08767C15.783 10.1437 15.033 11.0007 14.109 11.0007Z" fill="white"/>
</svg>
