<svg width="60" height="60" viewBox="0 0 60 60" fill="none" xmlns="http://www.w3.org/2000/svg">
<g clip-path="url(#clip0)">
<path d="M33.75 60H26.25C24.5 60 22.5 58.5 22.5 55.5V50.25C22.5 47.75 21.25 45.5 19.25 43.75C14.75 40.25 12.5 35.25 12.5 29.75C12.75 20.25 20.5 12.75 29.75 12.5C34.5 12.5 39 14.25 42.25 17.5C45.5 20.75 47.5 25.25 47.5 30C47.5 35.25 45.25 40.25 41 43.5C38.75 45.25 37.5 48 37.5 50.5V56.25C37.5 58.25 35.75 60 33.75 60ZM30 15C22 15 15.25 21.75 15 29.75C15 34.5 17 39 20.75 41.75C23.5 44 25 47 25 50.25V55.5C25 56 25 57.5 26.25 57.5H33.75C34.5 57.5 35 57 35 56.25V50.5C35 47.25 36.75 43.75 39.5 41.5C43 38.75 45 34.5 45 30C45 26 43.5 22.25 40.5 19.25C37.75 16.5 34 15 30 15Z" fill="#8ACA81"/>
<path d="M36.25 52.5H23.75C23 52.5 22.5 52 22.5 51.25C22.5 50.5 23 50 23.75 50H36.25C37 50 37.5 50.5 37.5 51.25C37.5 52 37 52.5 36.25 52.5Z" fill="#8ACA81"/>
<path d="M30 7.5C29.25 7.5 28.75 7 28.75 6.25V1.25C28.75 0.5 29.25 0 30 0C30.75 0 31.25 0.5 31.25 1.25V6.25C31.25 7 30.75 7.5 30 7.5Z" fill="#8ACA81"/>
<path d="M46.75 14.5C46.5 14.5 46 14.5 45.75 14.25C45.25 13.75 45.25 13 45.75 12.5L49.25 9C49.75 8.5 50.5 8.5 51 9C51.5 9.5 51.5 10.25 51 10.75L47.5 14.25C47.5 14.25 47 14.5 46.75 14.5Z" fill="#8ACA81"/>
<path d="M58.75 31.25H53.75C53 31.25 52.5 30.75 52.5 30C52.5 29.25 53 28.75 53.75 28.75H58.75C59.5 28.75 60 29.25 60 30C60 30.75 59.5 31.25 58.75 31.25Z" fill="#8ACA81"/>
<path d="M50.25 51.5C50 51.5 49.5 51.5 49.25 51.25L45.75 47.75C45.25 47.25 45.25 46.5 45.75 46C46.25 45.5 47 45.5 47.5 46L51 49.5C51.5 50 51.5 50.75 51 51.25C51 51.5 50.75 51.5 50.25 51.5Z" fill="#8ACA81"/>
<path d="M9.75 51.5C9.5 51.5 9 51.5 8.75 51.25C8.25 50.75 8.25 50 8.75 49.5L12.25 46C12.75 45.5 13.5 45.5 14 46C14.5 46.5 14.5 47.25 14 47.75L10.5 51.25C10.25 51.5 10 51.5 9.75 51.5Z" fill="#8ACA81"/>
<path d="M6.25 31.25H1.25C0.5 31.25 0 30.75 0 30C0 29.25 0.5 28.75 1.25 28.75H6.25C7 28.75 7.5 29.25 7.5 30C7.5 30.75 7 31.25 6.25 31.25Z" fill="#8ACA81"/>
<path d="M13.25 14.5C13 14.5 12.5 14.5 12.25 14.25L8.75 10.5C8.25 10 8.25 9.25 8.75 8.75C9.25 8.25 10 8.25 10.5 8.75L14 12.25C14.5 12.75 14.5 13.5 14 14C13.75 14.25 13.5 14.5 13.25 14.5Z" fill="#8ACA81"/>
<path d="M40 31.25C39.25 31.25 38.75 30.75 38.75 30C38.75 25.25 34.75 21.25 30 21.25C29.25 21.25 28.75 20.75 28.75 20C28.75 19.25 29.25 18.75 30 18.75C36.25 18.75 41.25 23.75 41.25 30C41.25 30.75 40.75 31.25 40 31.25Z" fill="#8ACA81"/>
</g>
<defs>
<clipPath id="clip0">
<rect width="60" height="60" fill="white"/>
</clipPath>
</defs>
</svg>
