<?xml version="1.0" encoding="UTF-8" standalone="no"?>
<svg
   xmlns:dc="http://purl.org/dc/elements/1.1/"
   xmlns:cc="http://creativecommons.org/ns#"
   xmlns:rdf="http://www.w3.org/1999/02/22-rdf-syntax-ns#"
   xmlns:svg="http://www.w3.org/2000/svg"
   xmlns="http://www.w3.org/2000/svg"
   xmlns:sodipodi="http://sodipodi.sourceforge.net/DTD/sodipodi-0.dtd"
   xmlns:inkscape="http://www.inkscape.org/namespaces/inkscape"
   version="1.1"
   id="svg2"
   xml:space="preserve"
   width="463.66666"
   height="464.13333"
   viewBox="0 0 463.66666 464.13333"
   sodipodi:docname="logo_DIT_13cm.eps"><metadata
     id="metadata8"><rdf:RDF><cc:Work
         rdf:about=""><dc:format>image/svg+xml</dc:format><dc:type
           rdf:resource="http://purl.org/dc/dcmitype/StillImage" /></cc:Work></rdf:RDF></metadata><defs
     id="defs6" /><sodipodi:namedview
     pagecolor="#ffffff"
     bordercolor="#666666"
     borderopacity="1"
     objecttolerance="10"
     gridtolerance="10"
     guidetolerance="10"
     inkscape:pageopacity="0"
     inkscape:pageshadow="2"
     inkscape:window-width="640"
     inkscape:window-height="480"
     id="namedview4" /><g
     id="g10"
     inkscape:groupmode="layer"
     inkscape:label="ink_ext_XXXXXX"
     transform="matrix(1.3333333,0,0,-1.3333333,0,464.13333)"><g
       id="g12"
       transform="scale(0.1)"><path
         d="m 1912.69,1689.9 c 0.06,19.54 -17.29,36.8 -37.03,36.85 -18.9,0.06 -35.91,-16.96 -36.09,-36.06 -0.21,-22.52 16.27,-36.69 35.96,-37.46 19.77,-0.78 37.1,17 37.16,36.67 z m 145.35,199.75 c 0.39,19.28 -16.39,36.33 -36.14,36.74 -19.5,0.4 -36.82,-16.23 -37.08,-35.64 -0.29,-20.45 15.97,-37.46 35.94,-37.58 20.05,-0.11 36.86,16.34 37.28,36.48 z m -373.05,63.84 c -0.27,-19.53 16.47,-36.48 35.86,-37.12 15.39,-0.5 37.01,14.2 37.04,35.92 0.03,22.21 -17.22,37.19 -35.82,37.75 -19.96,0.59 -36.79,-16.35 -37.08,-36.55 z m 144.13,-459.28 c 0,0.05 0,0.1 0,0.15 -15.42,0 -30.84,-0.14 -46.25,0.07 -6.14,0.08 -8.91,-2.55 -8.88,-8.57 0.14,-27.47 0.4,-54.93 0.36,-82.4 -0.03,-16.61 6.85,-30.03 19.16,-40.39 13.56,-11.42 29.48,-18.99 47.28,-13.15 27.05,8.87 44.54,27.06 43.9,59.52 -0.49,24.8 -0.05,49.63 -0.04,74.44 0,8.81 -1.6,10.33 -10.71,10.33 -14.94,0.01 -29.87,0 -44.82,0 z m -180.08,793.46 c 0,-0.09 0,-0.17 0,-0.25 15.67,0 31.34,0.03 47.01,-0.02 6.01,-0.01 9.76,2.3 9.75,8.84 -0.05,27.49 0.15,54.98 -0.23,82.46 -0.53,37.99 -46.37,67.1 -76.85,49.49 -19.77,-11.42 -33.03,-25.78 -33.67,-48.98 -0.77,-27.71 -0.35,-55.44 -0.56,-83.17 -0.05,-6.32 3.08,-8.47 8.99,-8.42 15.18,0.14 30.37,0.05 45.56,0.05 z m 180.17,-0.3 c 0,0.01 0,0.02 0,0.04 15.42,0 30.85,0.16 46.26,-0.08 6.57,-0.1 9.27,2.88 9.25,9.09 -0.09,26.99 -0.18,53.98 -0.21,80.98 -0.03,16.4 -6.23,30.13 -18.62,40.69 -13.52,11.53 -29.19,19.28 -47.11,14.07 -25.66,-7.46 -45.3,-26.8 -44.58,-57.41 0.62,-26.01 -0.09,-52.05 -0.22,-78.07 -0.04,-7.07 2.42,-9.35 9.7,-9.33 15.17,0.05 30.36,0.02 45.53,0.02 z m -178.88,-793.15 c 0,-0.01 0,-0.01 0,-0.01 -15.43,-0.01 -30.86,-0.15 -46.28,0.06 -6.65,0.09 -9.68,-2.35 -9.6,-9.31 0.3,-26.75 0.53,-53.52 0.32,-80.27 -0.1,-13.24 4.46,-24.46 12.44,-34.58 12.47,-15.8 38.09,-26.01 53.9,-20.51 27.95,9.71 44.54,26.86 44.76,59.96 0.17,25.06 0.32,50.12 0.47,75.19 0.04,6.94 -2.27,9.37 -9.73,9.44 -15.42,0.13 -30.85,0.03 -46.28,0.03 z m 358.94,0.01 c -15.44,0 -30.87,-0.04 -46.3,0.02 -6.24,0.03 -10.2,-2 -10.17,-9.09 0.09,-27 -0.06,-54.01 0.1,-81.01 0.26,-38.77 45.96,-67.23 76.12,-51.09 17.57,9.41 35.82,30.22 35.22,52.74 -0.69,26.02 -0.12,52.08 -0.1,78.12 0.01,8.61 -1.51,10.24 -10.03,10.28 -14.95,0.06 -29.89,0.01 -44.84,0.03 z m -0.51,793.21 c 0,0.01 0,0.02 0.01,0.03 15.17,0 30.34,0.03 45.52,-0.01 7.55,-0.02 9.85,1.86 9.85,9.06 0,27.47 -0.49,54.93 -0.1,82.39 0.49,34.86 -44.33,66.54 -75.54,49.89 -21.8,-11.63 -34.53,-27.61 -35.47,-51.72 -1.03,-26.7 -0.35,-53.47 -0.32,-80.21 0.01,-6.9 2.79,-9.42 9.81,-9.43 15.42,-0.01 30.83,0 46.24,0 z m 269.03,-341.65 c 0,0.15 0,0.31 0,0.47 -14.21,0 -28.42,-0.06 -42.63,0.03 -6.2,0.03 -9.3,-2.47 -9.28,-9.04 0.13,-30.83 0.11,-61.66 0,-92.49 -0.02,-5.94 2.29,-9.15 8.42,-9.12 28.65,0.16 57.31,0.63 85.96,0.4 32.26,-0.26 64.03,45.22 46.91,75.02 -11.32,19.72 -24.89,33.47 -48.22,34.6 -13.68,0.67 -27.43,0.13 -41.16,0.13 z m -51.81,125.01 c -0.01,0 -0.02,0 -0.04,0 0,-15.41 0.05,-30.83 -0.02,-46.24 -0.02,-6.18 1.9,-10.26 9.03,-10.23 26.97,0.13 53.97,-0.65 80.9,0.38 32.9,1.27 50.92,23.56 55.49,49.58 4.79,27.22 -20.79,59.77 -50.76,60.83 -28.87,1.03 -57.79,0.45 -86.69,0.62 -5.99,0.04 -7.97,-3.21 -7.94,-8.7 0.09,-15.41 0.03,-30.82 0.03,-46.24 z m -0.02,-359.32 c 0.03,0 0.06,0 0.09,0 0,-12.29 0.13,-24.6 -0.03,-36.89 -0.24,-19.24 -0.98,-18.61 18.49,-18.4 26.03,0.26 52.16,-0.92 78.09,0.87 27.53,1.9 47.32,27.73 49.18,52.63 1.21,16.12 -6.59,29.4 -17.17,40.77 -10.93,11.74 -25.22,16.67 -40.99,16.85 -25.56,0.28 -51.13,0.13 -76.69,0.16 -8.97,0.01 -10.94,-1.96 -10.96,-11.13 -0.03,-14.95 -0.01,-29.91 -0.01,-44.86 z m -792.98,179.07 h -0.03 c 0,14.95 0.01,29.9 0,44.86 0,8.93 -1.75,10.84 -10.38,10.86 -25.08,0.02 -50.18,-0.59 -75.24,0.12 -28.06,0.78 -49.28,-17.51 -56.77,-38.57 -6.13,-17.23 -2.57,-31.94 6.03,-46 10.87,-17.76 27.54,-26.27 48.54,-26.19 26.04,0.09 52.09,-0.08 78.14,-0.03 7.72,0.02 9.68,2.18 9.7,10.09 0.03,14.96 0.01,29.91 0.01,44.86 z m -0.02,-179.66 c 0,15.42 0.02,30.85 -0.01,46.28 -0.01,6.08 -2.08,10.35 -9.13,10.33 -27.23,-0.08 -54.51,0.81 -81.69,-0.4 -33.02,-1.47 -53.49,-25.83 -54.52,-54.01 -1.06,-28.84 22.82,-56.95 55.99,-56.87 26.51,0.06 53.02,-0.09 79.53,-0.08 7.87,0.01 9.75,1.91 9.8,9.92 0.08,14.94 0.02,29.89 0.03,44.83 z m 0.02,359.26 h -0.03 c 0,15.18 0.06,30.36 -0.02,45.54 -0.05,8.18 -1.82,10.04 -9.63,10.05 -26.27,0.02 -52.54,0.46 -78.78,-0.39 -8.86,-0.28 -18.37,-2.37 -26.27,-6.29 -26.42,-13.09 -41.4,-48.36 -21.95,-77.97 11.87,-18.07 28.7,-26.52 49.9,-26.72 24.81,-0.23 49.63,-0.01 74.45,-0.26 10.06,-0.1 12.3,1.71 12.32,11.94 0.03,14.7 0.01,29.4 0.01,44.1 z m 52.5,27.39 c -0.04,0 -0.08,0 -0.12,0 0,-32.79 -0.01,-65.59 0.01,-98.38 0,-8.72 1.5,-10.28 9.95,-10.3 20.98,-0.04 41.95,-0.05 62.94,-0.01 9.58,0.02 11.1,1.73 11.09,11.59 -0.04,34.48 0.79,68.99 -0.37,103.43 -0.77,22.91 18.24,40.17 39.94,39.69 36.88,-0.82 73.79,-0.29 110.68,-0.23 10.22,0.02 11.8,1.76 11.8,11.74 -0.02,22.67 -0.04,45.34 -0.04,68.01 0,10.46 -1.18,11.74 -11.51,11.74 -63.42,0 -126.84,-0.62 -190.25,0.28 -22.95,0.33 -45.24,-20.36 -44.39,-44.23 1.11,-31.08 0.27,-62.22 0.27,-93.33 z m 148.99,-272.06 c 0,-0.01 0,-0.03 0,-0.04 45.82,0 91.64,0.09 137.46,-0.07 9.6,-0.04 17.44,3.63 24,10.03 14.67,14.32 29.04,28.94 43.56,43.42 6.71,6.69 9.56,14.83 9.45,24.21 -0.12,10.13 -0.33,20.27 -0.02,30.38 0.46,14.87 4.44,29.1 14.57,39.96 19.73,21.14 40.14,41.69 61.02,61.7 13.23,12.68 29.96,17.69 48.36,17.5 25.09,-0.26 50.17,0.02 75.25,-0.11 6.24,-0.03 10.16,1.47 10.15,8.8 -0.15,54.5 -0.12,109.01 -0.2,163.52 -0.01,8.8 -1.26,10.01 -10.13,10.03 -35.93,0.05 -71.86,0.05 -107.8,0.03 -8.41,0 -10.07,-1.62 -10.09,-10.25 -0.06,-18.57 -0.26,-37.15 0.12,-55.71 0.45,-21.79 -7.45,-39.59 -22.94,-54.87 -37.77,-37.26 -74.9,-75.18 -112.84,-112.27 -7.9,-7.72 -9.46,-13.96 -5.36,-24.4 14.35,-36.49 -5.39,-79.18 -42.56,-91.87 -26.85,-9.16 -52.42,-5.11 -73.43,14.66 -21.27,20.02 -28.9,44.41 -20.75,73.62 10.92,39.19 56.98,63.98 97.66,45.42 5,-2.29 9.4,-2.59 13.79,1.83 40.48,40.7 81.14,81.21 121.59,121.94 6.46,6.51 9.77,14.49 9.55,24.14 -0.43,18.56 -0.12,37.14 -0.14,55.71 -0.01,11.13 -0.85,12.02 -11.85,12.03 -34.97,0.03 -69.94,0.01 -104.91,0.03 -10.33,0 -11.66,-1.26 -11.65,-11.64 0.01,-25.32 0.57,-50.66 -0.2,-75.96 -0.25,-8.05 -2.49,-16.89 -6.52,-23.81 -6.76,-11.63 -18.37,-16.14 -31.97,-16.07 -37.62,0.23 -75.24,0.12 -112.87,0.12 -8.4,0 -9.71,-1.29 -9.71,-9.62 -0.02,-34.01 -0.11,-68.02 0.07,-102.02 0.13,-27.05 -14.89,-42.23 -41.93,-42.1 -22.19,0.1 -44.37,0.1 -66.56,0.11 -9.97,0 -11.27,-1.4 -11.26,-11.24 0.03,-35.21 0.02,-70.43 -0.01,-105.64 -0.01,-10.48 0.85,-11.47 11.63,-11.48 45.82,-0.03 91.64,-0.02 137.47,-0.02 z m 541.55,64.42 c 0,50.65 0,101.3 0,151.96 -0.01,49.68 -0.2,99.38 0.06,149.06 0.12,24.77 -21.27,45.09 -43.27,43.94 -9.14,-0.47 -18.33,-0.05 -27.49,-0.03 -10.54,0.03 -11.68,-1.09 -11.68,-11.52 0.02,-56.16 0.06,-112.33 0.06,-168.49 -0.01,-22.54 -15.65,-38.21 -38.12,-38.22 -28.22,-0.02 -56.45,-0.16 -84.66,0.14 -9.31,0.1 -17.17,-2.94 -23.57,-9.19 -17.94,-17.53 -35.72,-35.22 -53.27,-53.14 -6.61,-6.73 -10.2,-14.94 -9.67,-24.85 0.5,-9.14 -0.09,-18.33 0.19,-27.49 0.6,-18.99 -6.69,-34.81 -19.59,-48.14 -14.08,-14.56 -28.58,-28.72 -42.89,-43.06 -13.98,-14.04 -30.83,-20.82 -50.68,-20.79 -91.4,0.11 -182.81,0.07 -274.21,0.08 -11,0 -11.87,-1.08 -11.85,-12.02 0.07,-34.5 0.06,-68.98 -0.01,-103.48 -0.02,-11.87 0.5,-12.59 12.68,-12.6 37.38,-0.05 74.8,0.98 112.11,-0.44 22.08,-0.85 39.14,5.19 53.32,22.3 14.42,17.41 33.98,24.35 56.55,23.92 24.35,-0.46 48.71,-0.17 73.08,-0.27 10.79,-0.03 12.56,1.26 16.84,11.03 16.16,36.84 55.44,52.5 92.29,38.55 45.65,-17.29 60.47,-74.08 30.13,-112.16 -19.94,-25.03 -47.41,-32.37 -76.57,-24.48 -22.06,5.98 -38.33,20.66 -46.71,42.84 -1.94,5.09 -4.82,9.19 -11.52,9.12 -27.49,-0.27 -54.99,-0.04 -82.47,-0.41 -4.63,-0.06 -10.07,-0.97 -13.67,-3.53 -7.97,-5.67 -15.45,-12.21 -22.34,-19.18 -15.22,-15.43 -33.19,-23.46 -54.99,-22.94 -12.78,0.3 -25.57,0.09 -38.35,0.1 -30.15,0.02 -60.3,0 -90.44,0.08 -5.73,0.02 -10.09,-1.09 -9.99,-8.19 0.18,-12.3 -0.16,-24.61 0.4,-36.89 0.2,-4.4 1.63,-9.1 3.74,-12.99 8.8,-16.19 22.4,-24.41 41.14,-24.38 84.66,0.12 169.32,0.07 253.97,0.06 87.31,0 174.62,-0.02 261.93,-0.03 9.65,0 11.6,1.51 11.61,9.55 0.04,34.73 -0.18,69.46 0.06,104.2 0.08,10.38 -3.66,18.71 -10.72,25.89 -9.29,9.48 -18.95,18.62 -27.75,28.52 -10.57,11.89 -16.26,25.99 -16.17,42.17 0.11,18.33 -0.18,36.67 0.25,54.99 0.16,6.89 -2.41,10.98 -8.64,13.25 -36.88,13.42 -56.86,57.54 -40.39,95.18 15.24,34.83 56.46,55.15 95.37,38.21 27.34,-11.9 45.64,-39.83 43.52,-69.19 -2.18,-30.2 -17.05,-52.7 -46.28,-64.06 -5.29,-2.06 -8.17,-5.46 -8.11,-11.43 0.17,-18.32 0.2,-36.66 0.12,-54.99 -0.04,-9.46 3.22,-17.38 9.94,-24.01 7.89,-7.79 15.71,-15.66 23.53,-23.54 8.08,-8.15 13.79,-17.55 17.64,-28.56 5.46,-15.65 3.14,-31.53 3.33,-47.31 0.33,-26.75 -0.07,-53.5 -0.07,-80.26 0,-4.88 1.85,-8.61 7.52,-8.6 11.82,0.02 23.69,-0.53 35.42,0.51 6.24,0.56 12.8,3 18.22,6.24 14.94,8.94 21.19,22.83 21.17,40.12 -0.11,99.61 -0.05,199.23 -0.05,298.85"
         style="fill:#ffffff;fill-opacity:1;fill-rule:nonzero;stroke:none"
         id="path14" /><path
         d="M 751.258,3456 H 1894.1 c 860.68,0 1558.4,-697.72 1558.4,-1558.41 v -13.47 C 3452.5,1023.43 2754.78,325.711 1894.1,325.711 H 751.258 c -233.77,0 -423.278,189.508 -423.278,423.269 v 2283.75 c 0,233.77 189.508,423.27 423.278,423.27 z"
         style="fill:none;stroke:#ffffff;stroke-width:50;stroke-linecap:butt;stroke-linejoin:miter;stroke-miterlimit:10;stroke-dasharray:none;stroke-opacity:1"
         id="path16" /><path
         d="m 1641.16,3197.82 0.11,96.64 -25.01,0.03 c -0.29,-12.58 -0.86,-23.92 -1.71,-34.02 -0.84,-10.1 -1.89,-19.13 -3.15,-27.11 -1.27,-7.99 -2.67,-14.91 -4.2,-20.77 -1.54,-5.87 -3.08,-10.77 -4.61,-14.72 z m 44.44,-54.52 -25.43,0.04 0.03,28.61 -73.75,0.08 -0.03,-28.6 -25.43,0.02 0.06,54.47 12.5,-0.02 c 1.42,2.68 3.16,6.71 5.21,12.08 2.06,5.36 3.97,12.6 5.75,21.7 1.77,9.12 3.23,20.42 4.38,33.91 1.15,13.49 1.51,29.7 1.12,48.63 v 6.15 l 80.33,-0.09 -0.15,-122.49 15.48,-0.02 -0.07,-54.47"
         style="fill:#ffffff;fill-opacity:1;fill-rule:nonzero;stroke:none"
         id="path18" /><path
         d="m 1703.21,3320.24 97.27,-0.11 -0.03,-25.86 -68.24,0.08 -0.04,-34.55 62.94,-0.06 -0.03,-25.85 -62.94,0.07 -0.04,-36.25 69.3,-0.07 -0.03,-25.86 -98.33,0.11 0.17,148.35"
         style="fill:#ffffff;fill-opacity:1;fill-rule:nonzero;stroke:none"
         id="path20" /><path
         d="m 1902.49,3294.16 -45.35,0.05 -0.13,-122.49 -29.04,0.03 0.17,148.35 103.42,-0.12 -0.17,-148.34 -29.03,0.03 0.13,122.49"
         style="fill:#ffffff;fill-opacity:1;fill-rule:nonzero;stroke:none"
         id="path22" /><path
         d="m 1993.19,3223.57 31.64,-2.96 -10.35,50.77 -1.9,0.18 z m 35.16,-26.71 -44.1,4.13 -13.19,-31.75 -28.9,2.71 61.54,143.23 28.89,-2.71 33.62,-152.15 -30.37,2.84 -7.49,33.7"
         style="fill:#ffffff;fill-opacity:1;fill-rule:nonzero;stroke:none"
         id="path24" /><path
         d="m 2146.61,3272.48 c -2.78,0.54 -5.42,0.95 -7.96,1.23 -2.54,0.27 -4.6,0.42 -6.18,0.44 l -9.2,-47.22 c 0.52,-0.25 1.32,-0.54 2.42,-0.89 1.07,-0.36 2.23,-0.7 3.47,-1.01 1.23,-0.31 2.44,-0.58 3.62,-0.81 1.18,-0.23 2.05,-0.4 2.6,-0.5 3.74,-0.74 7.52,-1.11 11.33,-1.13 3.81,-0.03 7.36,0.61 10.63,1.92 3.28,1.31 6.1,3.45 8.49,6.44 2.38,2.99 4.11,7.19 5.15,12.6 0.9,4.58 0.79,8.51 -0.28,11.82 -1.09,3.31 -2.81,6.13 -5.16,8.46 -2.35,2.32 -5.19,4.17 -8.52,5.55 -3.34,1.36 -6.81,2.4 -10.41,3.1 z m -38.34,29.27 c 6.04,-0.02 12.62,-0.4 19.74,-1.14 7.13,-0.74 14.16,-1.79 21.1,-3.14 7.19,-1.4 14.33,-3.41 21.38,-6.01 7.06,-2.59 13.15,-6.23 18.28,-10.9 5.14,-4.67 8.92,-10.51 11.37,-17.54 2.45,-7.03 2.69,-15.6 0.71,-25.72 -1.73,-8.87 -4.79,-16.16 -9.22,-21.85 -4.42,-5.69 -9.65,-10.06 -15.73,-13.13 -6.06,-3.06 -12.64,-4.87 -19.72,-5.43 -7.1,-0.57 -14.25,-0.15 -21.46,1.26 -0.69,0.14 -1.81,0.35 -3.33,0.65 -1.53,0.3 -3.11,0.63 -4.77,1.04 -1.65,0.39 -3.26,0.8 -4.83,1.26 -1.56,0.44 -2.68,0.81 -3.35,1.08 l -9.76,-50.13 -28.5,5.56 28.09,144.14"
         style="fill:#ffffff;fill-opacity:1;fill-rule:nonzero;stroke:none"
         id="path26" /><path
         d="m 2217.86,3152.02 23.15,-6.95 29.27,97.43 -19.49,5.85 -7.38,-24.56 -22.32,6.7 14.08,46.89 111.22,-33.42 -14.08,-46.88 -22.32,6.71 7.37,24.56 -19.28,5.79 -29.26,-97.42 22.93,-6.89 -6.71,-22.33 -73.87,22.2 6.69,22.32"
         style="fill:#ffffff;fill-opacity:1;fill-rule:nonzero;stroke:none"
         id="path28" /><path
         d="m 2371.59,3135.09 29.38,-12.12 5.01,51.58 -1.77,0.72 z m 25.78,-35.85 -40.94,16.89 -21.93,-26.49 -26.85,11.08 100.86,118.86 26.84,-11.07 -12.5,-155.31 -28.22,11.64 2.74,34.4"
         style="fill:#ffffff;fill-opacity:1;fill-rule:nonzero;stroke:none"
         id="path30" /><path
         d="m 2538.01,3081.28 11.82,19.87 -1.12,0.6 -39.2,-23.02 -4.5,2.4 -3.58,45.89 -0.94,0.5 -8.67,-18.92 -38.34,-71.78 -24.31,12.98 69.91,130.84 25.97,-13.87 3.07,-48.25 0.74,-0.4 41.61,24.38 25.8,-13.78 -69.9,-130.84 -25.6,13.68 37.24,69.72"
         style="fill:#ffffff;fill-opacity:1;fill-rule:nonzero;stroke:none"
         id="path32" /><path
         d="m 2626.44,3110.27 80.85,-54.07 -14.38,-21.5 -56.71,37.94 -19.2,-28.71 52.31,-34.99 -14.37,-21.49 -52.33,34.99 -20.14,-30.12 57.6,-38.53 -14.36,-21.49 -81.74,54.66 82.47,123.31"
         style="fill:#ffffff;fill-opacity:1;fill-rule:nonzero;stroke:none"
         id="path34" /><path
         d="m 2742.28,2918.47 -37,30.41 -39.43,-47.97 -22.43,18.43 94.2,114.61 22.42,-18.43 -38.35,-46.67 37.01,-30.41 38.34,46.66 22.44,-18.43 -94.2,-114.6 -22.43,18.43 39.43,47.97"
         style="fill:#ffffff;fill-opacity:1;fill-rule:nonzero;stroke:none"
         id="path36" /><path
         d="m 2765.72,2845.85 17.07,-17.09 71.98,71.87 -14.37,14.39 -18.15,-18.11 -16.47,16.49 34.64,34.6 82.05,-82.2 -34.63,-34.58 -16.48,16.49 18.15,18.13 -14.22,14.25 -71.99,-71.88 16.92,-16.95 -16.5,-16.47 -54.5,54.59 16.5,16.47"
         style="fill:#ffffff;fill-opacity:1;fill-rule:nonzero;stroke:none"
         id="path38" /><path
         d="m 3012.48,2633.41 17,9.29 -0.6,0.88 -21.4,-3.82 -87.98,-8.22 -14.93,22.4 123.44,82.27 16.1,-24.16 -64.01,-42.66 -17.75,-9.29 0.71,-1.06 22.15,3.82 86.76,7.4 14.8,-22.22 -123.43,-82.27 -16.11,24.16 65.25,43.48"
         style="fill:#ffffff;fill-opacity:1;fill-rule:nonzero;stroke:none"
         id="path40" /><path
         d="m 3000.22,2548.06 11.35,-21.33 89.8,47.79 -9.56,17.96 -22.65,-12.05 -10.93,20.58 43.2,23 54.56,-102.52 -43.2,-22.99 -10.96,20.57 22.64,12.05 -9.46,17.77 -89.8,-47.79 11.25,-21.14 -20.58,-10.96 -36.24,68.11 20.58,10.95"
         style="fill:#ffffff;fill-opacity:1;fill-rule:nonzero;stroke:none"
         id="path42" /><path
         d="m 3148.61,2258.27 6.68,-22.34 -40.62,-12.13 c -4.4,3.4 -8.49,8.19 -12.24,14.36 -3.76,6.18 -6.69,12.79 -8.81,19.83 -2.67,8.93 -3.89,17.82 -3.65,26.66 0.24,8.85 2.39,17.19 6.45,25.04 4.07,7.85 10.26,15.01 18.58,21.48 8.31,6.46 19.17,11.7 32.58,15.7 13.94,4.17 26.23,5.59 36.87,4.28 10.64,-1.33 19.81,-4.37 27.51,-9.15 7.69,-4.78 13.98,-10.79 18.87,-18.02 4.89,-7.24 8.49,-14.72 10.8,-22.44 2.43,-8.12 3.8,-15.19 4.13,-21.22 0.32,-6.02 0.15,-11.12 -0.52,-15.3 l -42.23,-12.62 -6.68,22.34 23.15,6.91 c -0.57,4.41 -1.54,8.84 -2.87,13.3 -1.58,5.28 -4.02,9.89 -7.34,13.84 -3.32,3.95 -7.52,7.02 -12.59,9.18 -5.07,2.18 -10.96,3.29 -17.69,3.34 -6.73,0.06 -14.28,-1.17 -22.68,-3.68 -7.31,-2.18 -13.71,-5.06 -19.22,-8.61 -5.48,-3.56 -9.9,-7.68 -13.22,-12.36 -3.32,-4.67 -5.44,-9.81 -6.35,-15.39 -0.91,-5.58 -0.44,-11.48 1.42,-17.71 1.35,-4.46 3.04,-8.68 5.11,-12.63 l 24.56,7.34"
         style="fill:#ffffff;fill-opacity:1;fill-rule:nonzero;stroke:none"
         id="path44" /><path
         d="m 3258.2,2228.52 18.45,-95.5 -25.39,-4.91 -12.94,67 -33.91,-6.55 11.94,-61.8 -25.39,-4.91 -11.93,61.8 -35.59,-6.88 13.16,-68.03 -25.4,-4.91 -18.65,96.55 145.65,28.14"
         style="fill:#ffffff;fill-opacity:1;fill-rule:nonzero;stroke:none"
         id="path46" /><path
         d="m 3263.76,2045.94 c -0.25,2.82 -0.6,5.48 -1.05,7.99 -0.44,2.51 -0.88,4.53 -1.31,6.05 l -47.89,-4.43 c -0.09,-0.57 -0.17,-1.43 -0.2,-2.57 -0.03,-1.13 -0.03,-2.34 0.02,-3.61 0.05,-1.28 0.13,-2.51 0.23,-3.71 0.12,-1.19 0.19,-2.07 0.25,-2.63 0.35,-3.8 1.05,-7.54 2.1,-11.2 1.04,-3.66 2.66,-6.88 4.84,-9.66 2.15,-2.77 5.02,-4.89 8.56,-6.34 3.54,-1.44 8.05,-1.91 13.54,-1.41 4.63,0.43 8.39,1.63 11.26,3.6 2.87,1.97 5.09,4.41 6.67,7.32 1.57,2.91 2.54,6.16 2.92,9.74 0.39,3.58 0.41,7.2 0.06,10.86 z m 17.35,45.02 c 1.66,-5.81 3.14,-12.23 4.44,-19.28 1.29,-7.04 2.26,-14.08 2.9,-21.12 0.67,-7.31 0.75,-14.72 0.25,-22.21 -0.51,-7.5 -2.29,-14.37 -5.34,-20.61 -3.03,-6.24 -7.58,-11.52 -13.64,-15.84 -6.05,-4.32 -14.23,-6.95 -24.49,-7.91 -9.01,-0.83 -16.86,0.08 -23.55,2.72 -6.71,2.65 -12.38,6.45 -17.02,11.42 -4.65,4.96 -8.23,10.76 -10.76,17.41 -2.53,6.65 -4.14,13.63 -4.81,20.94 -0.07,0.71 -0.17,1.84 -0.31,3.38 -0.14,1.55 -0.26,3.17 -0.35,4.86 -0.08,1.7 -0.13,3.36 -0.14,4.99 -0.01,1.63 0.02,2.81 0.1,3.52 l -50.85,-4.7 -2.67,28.91 146.24,13.52"
         style="fill:#ffffff;fill-opacity:1;fill-rule:nonzero;stroke:none"
         id="path48" /><path
         d="m 3230.78,1918.06 c -0.01,-2.01 0.05,-4.35 0.18,-7.02 0.13,-2.67 0.33,-4.87 0.61,-6.61 1.65,-5.47 4.16,-10.21 7.5,-14.18 3.35,-3.96 7.73,-5.97 13.18,-5.98 3.64,-0.02 6.65,0.69 9.03,2.12 2.39,1.44 4.28,3.34 5.68,5.72 1.41,2.37 2.4,5.07 2.97,8.09 0.57,3.02 0.85,6.2 0.86,9.51 0.02,3.74 -0.04,7.2 -0.16,10.37 -0.14,3.18 -0.33,5.62 -0.61,7.35 l -39.21,0.14 z m -63.82,-9.13 c -0.01,-3.53 0.4,-6.96 1.22,-10.29 0.83,-3.32 2.11,-6.25 3.85,-8.81 1.74,-2.54 3.94,-4.59 6.59,-6.16 2.64,-1.56 5.8,-2.35 9.43,-2.36 4.61,-0.02 8.25,0.89 10.91,2.71 2.67,1.83 4.74,4.23 6.22,7.19 1.48,2.96 2.43,6.28 2.86,9.95 0.44,3.67 0.66,7.35 0.67,11.02 l 0.06,15.47 -40.49,0.13 c -0.29,-0.7 -0.5,-1.83 -0.64,-3.38 -0.15,-1.55 -0.25,-3.21 -0.33,-4.98 -0.09,-1.76 -0.16,-3.6 -0.24,-5.51 -0.06,-1.91 -0.1,-3.57 -0.11,-4.98 z m 91.36,-53.72 c -3.68,0.02 -7.35,0.49 -11.01,1.42 -3.68,0.93 -7.02,2.46 -10.05,4.59 -3.04,2.13 -5.71,4.89 -8.03,8.29 -2.32,3.4 -4.03,7.5 -5.15,12.31 l -1.27,0.01 c -0.72,-4.24 -1.94,-8.26 -3.65,-12.07 -1.71,-3.81 -4.05,-7.12 -7.02,-9.94 -2.98,-2.81 -6.59,-5.02 -10.83,-6.64 -4.25,-1.6 -9.27,-2.4 -15.06,-2.38 -7.62,0.02 -14.22,1.67 -19.79,4.94 -5.58,3.27 -10.12,7.63 -13.62,13.08 -3.53,5.45 -6.12,11.64 -7.79,18.57 -1.67,6.93 -2.5,14.07 -2.47,21.41 0.02,2.4 0.02,5.48 0.03,9.22 0.02,3.74 0.14,7.77 0.37,12.08 0.22,4.31 0.56,8.69 0.99,13.13 0.45,4.45 1.09,8.51 1.95,12.19 l 146.23,-0.51 c 0.41,-2.68 0.82,-5.76 1.24,-9.23 0.4,-3.45 0.74,-7.16 1.02,-11.12 0.27,-3.95 0.46,-8.02 0.59,-12.19 0.12,-4.17 0.19,-8.3 0.17,-12.39 -0.02,-6.93 -0.58,-13.68 -1.66,-20.24 -1.08,-6.57 -2.97,-12.42 -5.67,-17.57 -2.71,-5.15 -6.47,-9.26 -11.27,-12.36 -4.83,-3.09 -10.9,-4.63 -18.25,-4.6"
         style="fill:#ffffff;fill-opacity:1;fill-rule:nonzero;stroke:none"
         id="path50" /><path
         d="m 3214.76,1749.19 19.03,-3.52 0.1,1.05 -18.99,10.55 -73.46,49.13 2.54,26.79 147.68,-14.04 -2.75,-28.91 -76.58,7.29 -19.62,4 -0.13,-1.27 19.6,-11.02 71.98,-48.99 -2.54,-26.58 -147.67,14.04 2.74,28.91 78.07,-7.43"
         style="fill:#ffffff;fill-opacity:1;fill-rule:nonzero;stroke:none"
         id="path52" /><path
         d="m 3164.12,1617.99 -4.49,-22.87 -41.59,8.16 c -2.31,5.06 -3.7,11.19 -4.15,18.41 -0.47,7.21 0.01,14.43 1.43,21.64 1.79,9.15 4.85,17.57 9.17,25.3 4.32,7.71 10.11,14.11 17.36,19.16 7.26,5.06 16.06,8.51 26.44,10.37 10.37,1.85 22.42,1.44 36.14,-1.26 14.27,-2.79 25.83,-7.26 34.63,-13.38 8.8,-6.11 15.49,-13.07 20.08,-20.89 4.59,-7.81 7.38,-16.05 8.32,-24.73 0.97,-8.69 0.68,-16.98 -0.86,-24.89 -1.64,-8.32 -3.72,-15.2 -6.23,-20.69 -2.51,-5.48 -5.03,-9.92 -7.57,-13.31 l -43.26,8.49 4.49,22.87 23.71,-4.65 c 1.53,4.16 2.75,8.52 3.64,13.1 1.07,5.41 1.04,10.64 -0.06,15.67 -1.09,5.05 -3.39,9.7 -6.86,13.98 -3.49,4.28 -8.19,8.02 -14.11,11.19 -5.94,3.18 -13.2,5.61 -21.79,7.3 -7.49,1.46 -14.49,1.9 -21.02,1.32 -6.52,-0.61 -12.34,-2.2 -17.46,-4.79 -5.12,-2.61 -9.37,-6.15 -12.78,-10.67 -3.4,-4.51 -5.72,-9.96 -6.98,-16.34 -0.89,-4.58 -1.35,-9.09 -1.36,-13.55 l 25.16,-4.94"
         style="fill:#ffffff;fill-opacity:1;fill-rule:nonzero;stroke:none"
         id="path54" /><path
         d="m 3120.41,1551.64 c -1.43,-4.78 -0.79,-9.32 1.98,-13.65 2.74,-4.32 8.32,-7.75 16.71,-10.29 4.31,-1.3 8.02,-1.86 11.1,-1.68 3.08,0.19 5.67,0.82 7.77,1.9 2.1,1.08 3.75,2.51 4.95,4.3 1.2,1.8 2.07,3.59 2.62,5.35 0.57,1.92 0.94,3.63 1.09,5.14 0.17,1.51 0.29,2.85 0.35,4.02 l -43.02,12.99 c -0.9,-1.51 -1.57,-2.76 -2.01,-3.75 -0.44,-0.97 -0.95,-2.42 -1.54,-4.33 z m 130.03,-0.44 -8.2,-27.19 -50.92,15.38 c -0.02,-1.03 -0.14,-2.69 -0.41,-5 -0.24,-2.28 -0.84,-5 -1.79,-8.12 -1.71,-5.71 -4.25,-10.82 -7.61,-15.37 -3.37,-4.54 -7.81,-8.12 -13.33,-10.75 -4.28,-1.97 -9.37,-3.05 -15.27,-3.29 -5.89,-0.21 -12.69,0.84 -20.41,3.18 -6.89,2.08 -13.35,5.01 -19.36,8.82 -6,3.81 -10.75,8.74 -14.23,14.82 -2.77,4.97 -4.4,10.84 -4.86,17.61 -0.46,6.79 0.48,14.04 2.8,21.74 1.26,4.2 2.99,8.92 5.16,14.16 2.17,5.25 4.79,10.74 7.84,16.46 z m -26.45,-87.64 -8.21,-27.19 -142.02,42.87 8.22,27.19 142.01,-42.87"
         style="fill:#ffffff;fill-opacity:1;fill-rule:nonzero;stroke:none"
         id="path56" /><path
         d="m 3053.84,1248.98 16.19,-10.61 0.51,0.94 -13.46,17.07 -48.73,73.71 12.72,23.73 130.75,-70.06 -13.72,-25.6 -67.8,36.34 -16.57,11.28 -0.59,-1.13 13.82,-17.73 47.42,-73.03 -12.61,-23.53 -130.76,70.08 13.72,25.58 69.11,-37.04"
         style="fill:#ffffff;fill-opacity:1;fill-rule:nonzero;stroke:none"
         id="path58" /><path
         d="m 2876.58,1088.74 c -2.34,-2.84 -4.17,-5.78 -5.5,-8.79 -1.33,-3.03 -2.03,-6.07 -2.11,-9.11 -0.09,-3.04 0.56,-6.04 1.9,-8.98 1.35,-2.95 3.64,-5.75 6.85,-8.39 3.85,-3.18 7.46,-5.13 10.8,-5.89 3.35,-0.74 6.54,-0.61 9.58,0.35 3.05,0.96 5.88,2.61 8.51,4.93 2.64,2.32 5.21,5.01 7.73,8.05 1.26,1.53 2.69,3.55 4.31,6.06 1.63,2.51 2.68,4.3 3.19,5.34 l -34.22,28.19 c -1.31,-0.92 -3.03,-2.58 -5.16,-4.95 -2.13,-2.37 -4.09,-4.63 -5.88,-6.81 z m 126.01,-45.36 -58.08,-70.482 -19.97,16.43 39.63,48.102 -23.87,19.67 c -1.2,-2.12 -2.74,-4.65 -4.62,-7.6 -1.87,-2.94 -3.88,-5.72 -6.05,-8.33 -5.02,-6.12 -10.25,-11.23 -15.68,-15.37 -5.41,-4.13 -11.02,-6.88 -16.82,-8.25 -5.78,-1.35 -11.79,-1.21 -18.02,0.45 -6.24,1.65 -12.62,5.18 -19.16,10.57 -6.44,5.3 -11.18,10.99 -14.22,17.06 -3.04,6.09 -4.52,12.42 -4.39,19 0.12,6.6 1.67,13.36 4.66,20.33 2.99,6.96 7.36,13.93 13.11,20.91 1.53,1.86 3.49,4.13 5.89,6.81 2.41,2.7 4.99,5.51 7.78,8.43 2.77,2.93 5.58,5.79 8.42,8.56 2.85,2.8 5.53,5.16 8.06,7.1 l 113.33,-93.39"
         style="fill:#ffffff;fill-opacity:1;fill-rule:nonzero;stroke:none"
         id="path60" /><path
         d="m 2913.12,938.031 -68.92,-68.64 -18.25,18.32 48.36,48.148 -24.37,24.481 -44.6,-44.418 -18.25,18.308 44.6,44.418 -25.57,25.682 -49.1,-48.889 -18.26,18.321 69.68,69.378 104.68,-105.109"
         style="fill:#ffffff;fill-opacity:1;fill-rule:nonzero;stroke:none"
         id="path62" /><path
         d="m 2753.92,920.199 -18.06,-14.75 -15.02,18.383 c -0.41,-0.152 -0.78,-0.262 -1.08,-0.344 -3.03,-1.187 -6.11,-2.617 -9.24,-4.269 -3.12,-1.629 -6.28,-3.758 -9.45,-6.348 -2.62,-2.141 -4.89,-4.539 -6.83,-7.223 -1.92,-2.66 -3.28,-5.507 -4.09,-8.527 -0.81,-3.039 -0.89,-6.121 -0.25,-9.242 0.64,-3.129 2.2,-6.219 4.71,-9.297 2.78,-3.383 5.71,-5.594 8.82,-6.613 3.12,-1.008 6.28,-1.16 9.52,-0.43 3.24,0.731 6.49,2.063 9.74,3.992 3.26,1.949 6.41,4.059 9.45,6.36 l 4.92,4.007 14.35,-17.539 -4.77,-3.898 c -2.29,-1.883 -4.49,-4.031 -6.59,-6.492 -2.11,-2.449 -3.7,-5.02 -4.76,-7.727 -1.09,-2.703 -1.5,-5.543 -1.24,-8.531 0.24,-2.981 1.58,-5.961 4,-8.91 2.04,-2.52 4.31,-4.27 6.77,-5.281 2.46,-1 5.04,-1.348 7.72,-1.079 2.69,0.278 5.4,1.098 8.15,2.411 2.74,1.339 5.5,3.128 8.22,5.347 5.14,4.211 9.18,8.422 12.11,12.641 l -13.81,16.922 18.06,14.738 25.47,-31.18 c -2.61,-5.058 -6.57,-10.89 -11.85,-17.48 -5.27,-6.59 -11.47,-12.801 -18.59,-18.61 -4.81,-3.941 -9.9,-7.32 -15.25,-10.14 -5.35,-2.82 -10.76,-4.59 -16.2,-5.301 -5.44,-0.711 -10.8,-0.07 -16.06,1.922 -5.28,1.98 -10.25,5.82 -14.89,11.5 -4.64,5.699 -7.35,12.07 -8.09,19.121 -0.74,7.066 1.33,14.398 6.21,22.047 l -0.67,0.82 c -8.74,-4.039 -16.87,-5.48 -24.39,-4.32 -7.5,1.152 -14.48,5.66 -20.92,13.551 -5.09,6.242 -8.22,12.621 -9.37,19.16 -1.14,6.539 -0.85,12.941 0.88,19.191 1.73,6.258 4.72,12.258 8.97,18 4.24,5.758 9.15,10.899 14.73,15.449 7.22,5.911 14.38,10.719 21.48,14.418 7.1,3.704 13.54,6.274 19.3,7.692 l 27.89,-34.141"
         style="fill:#ffffff;fill-opacity:1;fill-rule:nonzero;stroke:none"
         id="path64" /><path
         d="m 2643.7,803.801 c -3.98,6.008 -7.95,11.418 -11.93,16.25 -3.97,4.828 -7.97,8.668 -11.97,11.508 -4.02,2.851 -8.15,4.472 -12.4,4.863 -4.25,0.398 -8.68,-0.922 -13.26,-3.973 -4.12,-2.738 -6.96,-5.859 -8.53,-9.367 -1.58,-3.5 -2.01,-7.57 -1.32,-12.203 0.7,-4.609 2.51,-9.82 5.42,-15.598 2.92,-5.793 6.79,-12.332 11.64,-19.621 3.83,-5.762 7.68,-11.101 11.52,-16.012 3.86,-4.898 7.81,-8.796 11.87,-11.707 4.04,-2.902 8.24,-4.57 12.59,-4.992 4.35,-0.41 8.88,0.949 13.59,4.071 8.23,5.48 11.44,12.781 9.6,21.91 -1.82,9.129 -7.42,20.761 -16.82,34.871 z m 25.41,16.898 c 6.66,-10 11.7,-19.617 15.14,-28.879 3.44,-9.25 5.03,-17.898 4.78,-25.949 -0.25,-8.051 -2.31,-15.48 -6.17,-22.301 -3.88,-6.808 -9.74,-12.832 -17.63,-18.082 -8.48,-5.617 -16.7,-8.797 -24.7,-9.539 -8,-0.73 -15.72,0.481 -23.18,3.672 -7.46,3.188 -14.67,8.16 -21.61,14.91 -6.95,6.75 -13.55,14.821 -19.81,24.239 -13.37,20.121 -19.97,38.421 -19.82,54.902 0.16,16.469 8.07,29.91 23.72,40.308 8.47,5.641 16.74,8.829 24.78,9.602 8.06,0.77 15.81,-0.434 23.27,-3.613 7.48,-3.199 14.64,-8.18 21.53,-14.957 6.88,-6.793 13.45,-14.891 19.7,-24.313"
         style="fill:#ffffff;fill-opacity:1;fill-rule:nonzero;stroke:none"
         id="path66" /><path
         d="m 2511.96,669.02 40.07,21.261 -57.42,108.199 25.65,13.61 69.53,-131.039 -91.36,-48.481 -69.52,131.039 25.64,13.61 57.41,-108.199"
         style="fill:#ffffff;fill-opacity:1;fill-rule:nonzero;stroke:none"
         id="path68" /><path
         d="m 2398.5,689.34 -29.42,-12.051 32.72,-40.18 1.77,0.723 z m -43.55,7.359 40.99,16.781 -3.03,34.262 26.87,11.008 11.89,-155.441 -26.87,-11.008 -100.34,119.219 28.24,11.562 22.25,-26.383"
         style="fill:#ffffff;fill-opacity:1;fill-rule:nonzero;stroke:none"
         id="path70" /><path
         d="m 2229.81,637.371 -22.35,-6.66 -12.09,40.629 c 3.41,4.422 8.21,8.492 14.38,12.242 6.19,3.758 12.79,6.68 19.83,8.77 8.94,2.668 17.84,3.878 26.68,3.628 8.84,-0.242 17.18,-2.41 25.03,-6.48 7.84,-4.078 15,-10.289 21.46,-18.609 6.45,-8.321 11.67,-19.192 15.66,-32.59 4.14,-13.949 5.56,-26.231 4.22,-36.879 -1.33,-10.641 -4.38,-19.813 -9.17,-27.5 -4.79,-7.684 -10.8,-13.973 -18.05,-18.863 -7.24,-4.868 -14.72,-8.457 -22.44,-10.758 -8.13,-2.422 -15.2,-3.781 -21.23,-4.11 -6.01,-0.312 -11.12,-0.132 -15.3,0.539 l -12.57,42.25 22.34,6.641 6.89,-23.152 c 4.4,0.582 8.85,1.519 13.31,2.851 5.28,1.571 9.89,4.02 13.86,7.328 3.94,3.313 7,7.512 9.19,12.571 2.17,5.07 3.29,10.972 3.35,17.691 0.06,6.731 -1.16,14.301 -3.65,22.692 -2.17,7.308 -5.05,13.718 -8.59,19.218 -3.55,5.5 -7.68,9.918 -12.34,13.239 -4.68,3.332 -9.81,5.461 -15.39,6.363 -5.58,0.93 -11.49,0.457 -17.71,-1.391 -4.47,-1.332 -8.68,-3.031 -12.64,-5.082 l 7.32,-24.578"
         style="fill:#ffffff;fill-opacity:1;fill-rule:nonzero;stroke:none"
         id="path72" /><path
         d="m 2112.02,598.781 47.04,9.02 -11.7,60.988 28.51,5.449 27.95,-145.679 -28.51,-5.469 -11.39,59.32 -47.03,-9.031 11.38,-59.309 -28.51,-5.468 -27.95,145.679 28.51,5.469 11.7,-60.969"
         style="fill:#ffffff;fill-opacity:1;fill-rule:nonzero;stroke:none"
         id="path74" /><path
         d="m 2032.83,575.359 c -0.66,7.18 -1.59,13.832 -2.78,19.961 -1.2,6.129 -2.88,11.41 -5.06,15.821 -2.17,4.41 -5.04,7.808 -8.58,10.179 -3.55,2.371 -8.08,3.301 -13.56,2.821 -4.93,-0.461 -8.91,-1.852 -11.96,-4.18 -3.05,-2.34 -5.37,-5.711 -6.96,-10.109 -1.58,-4.403 -2.47,-9.832 -2.66,-16.313 -0.18,-6.469 0.11,-14.059 0.91,-22.789 0.63,-6.891 1.47,-13.41 2.52,-19.551 1.07,-6.16 2.68,-11.48 4.86,-15.949 2.18,-4.48 5.08,-7.941 8.71,-10.379 3.63,-2.43 8.26,-3.402 13.88,-2.891 9.85,0.899 16.14,5.809 18.88,14.7 2.73,8.902 3.33,21.8 1.8,38.679 z m 30.39,2.762 c 1.08,-11.949 0.94,-22.82 -0.44,-32.59 -1.38,-9.769 -4.09,-18.14 -8.14,-25.109 -4.05,-6.961 -9.4,-12.512 -16.04,-16.672 -6.65,-4.148 -14.68,-6.648 -24.1,-7.512 -10.13,-0.929 -18.89,0.184 -26.27,3.352 -7.38,3.16 -13.6,7.922 -18.65,14.25 -5.04,6.359 -9.01,14.16 -11.91,23.398 -2.9,9.242 -4.86,19.481 -5.89,30.742 -2.19,24.071 0.71,43.301 8.68,57.719 7.99,14.422 21.34,22.473 40.04,24.18 10.14,0.922 18.93,-0.199 26.38,-3.348 7.45,-3.152 13.7,-7.902 18.75,-14.25 5.04,-6.351 8.97,-14.152 11.81,-23.402 2.83,-9.25 4.75,-19.488 5.78,-30.758"
         style="fill:#ffffff;fill-opacity:1;fill-rule:nonzero;stroke:none"
         id="path76" /><path
         d="m 1845.67,591.922 -23.31,0.027 0.05,42.383 c 4.53,3.238 10.28,5.789 17.28,7.617 6.99,1.832 14.16,2.731 21.51,2.723 9.32,-0.012 18.19,-1.391 26.6,-4.16 8.4,-2.762 15.77,-7.223 22.12,-13.383 6.35,-6.149 11.43,-14.141 15.24,-23.957 3.79,-9.82 5.69,-21.731 5.67,-35.711 -0.01,-14.551 -2.18,-26.742 -6.5,-36.563 -4.32,-9.808 -9.87,-17.707 -16.67,-23.707 -6.78,-5.992 -14.35,-10.3 -22.69,-12.91 -8.33,-2.59 -16.53,-3.89 -24.59,-3.883 -8.47,0.012 -15.64,0.723 -21.5,2.141 -5.86,1.43 -10.69,3.051 -14.51,4.902 l 0.05,44.079 23.31,-0.028 -0.02,-24.16 c 4.37,-0.711 8.89,-1.07 13.55,-1.082 5.51,0 10.65,1.012 15.37,3.051 4.74,2.051 8.87,5.187 12.42,9.429 3.52,4.231 6.29,9.559 8.28,15.981 1.99,6.43 2.98,14.027 2.99,22.789 0.01,7.621 -0.9,14.59 -2.73,20.871 -1.82,6.277 -4.51,11.688 -8.04,16.219 -3.52,4.531 -7.83,8.031 -12.92,10.5 -5.08,2.48 -10.87,3.719 -17.37,3.719 -4.67,0.011 -9.18,-0.399 -13.56,-1.25 l -0.03,-25.637"
         style="fill:#ffffff;fill-opacity:1;fill-rule:nonzero;stroke:none"
         id="path78" /><path
         d="m 1786.66,618.48 -24.16,0.032 -0.11,-101.723 20.35,-0.027 0.03,25.636 23.31,-0.019 -0.05,-48.949 -116.13,0.129 0.05,48.953 23.31,-0.024 -0.03,-25.636 20.13,-0.032 0.12,101.719 -23.95,0.031 0.02,23.309 77.14,-0.09 -0.03,-23.309"
         style="fill:#ffffff;fill-opacity:1;fill-rule:nonzero;stroke:none"
         id="path80" /><path
         d="m 1626.13,618.25 c -3.94,0 -7.69,-0.379 -11.23,-1.16 -3.53,-0.77 -6.64,-2.11 -9.33,-4.02 -2.68,-1.89 -4.78,-4.398 -6.26,-7.511 -1.49,-3.098 -2.24,-6.918 -2.24,-11.438 -0.01,-4.812 0.81,-8.723 2.43,-11.762 1.62,-3.039 3.73,-5.41 6.35,-7.109 2.61,-1.699 5.68,-2.828 9.21,-3.41 3.54,-0.551 7.21,-0.86 11.02,-0.86 0.99,0 2.2,0.079 3.6,0.211 1.42,0.137 2.83,0.278 4.24,0.43 1.42,0.129 2.72,0.309 3.93,0.508 1.2,0.211 2.08,0.402 2.64,0.531 l 0.05,44.289 c -1.55,0.43 -3.63,0.75 -6.24,0.973 -2.62,0.207 -5.34,0.328 -8.17,0.328 z m 43.3,-124.66 -29.03,0.031 0.06,53.188 c -0.7,-0.137 -1.87,-0.317 -3.49,-0.52 -1.62,-0.207 -3.39,-0.391 -5.31,-0.527 -1.9,-0.141 -3.84,-0.282 -5.82,-0.41 -1.98,-0.153 -3.81,-0.223 -5.51,-0.211 -6.92,0 -13.64,0.73 -20.13,2.14 -6.5,1.43 -12.25,3.938 -17.27,7.539 -5,3.61 -8.99,8.5 -11.95,14.641 -2.96,6.148 -4.43,13.961 -4.42,23.43 0.02,16.949 5.29,29.718 15.83,38.339 10.53,8.602 25.63,12.891 45.26,12.872 1.98,-0.012 4.62,-0.051 7.94,-0.122 3.32,-0.082 6.97,-0.25 10.92,-0.55 3.96,-0.282 7.94,-0.629 11.97,-1.071 4.02,-0.418 7.73,-1.07 11.12,-1.91 l -0.17,-146.859"
         style="fill:#ffffff;fill-opacity:1;fill-rule:nonzero;stroke:none"
         id="path82" /><path
         d="M 1894.1,337.961 H 751.258 c -233.77,0 -423.278,189.508 -423.278,423.277 V 3044.98 c 0,45.17 7.153,88.66 20.254,129.48 C 149.852,3136.13 0,2961.63 0,2752.05 V 430.309 C 0,192.648 192.66,0 430.313,0 H 1592.16 c 559.61,0 1051.43,290.141 1333.29,728.191 -274.79,-242.8 -635.84,-390.23 -1031.35,-390.23"
         style="fill:#ffffff;fill-opacity:1;fill-rule:evenodd;stroke:none"
         id="path84" /></g></g></svg>
